<svg id="Line_stroke_cutting_ex_Revise" height="512" viewBox="0 0 512 512" width="512" xmlns="http://www.w3.org/2000/svg" data-name="Line stroke cutting ex Revise"><g><path d="m384 16h-344a8 8 0 0 0 -8 8v80h16v-72h328v448h-328v-360h-16v368a8 8 0 0 0 8 8h344a8 8 0 0 0 8-8v-464a8 8 0 0 0 -8-8z"/><path d="m72 88h24v64h16v-64h24v-16h-64z"/><path d="m328 152v-64h24v-16h-64v16h24v64z"/><path d="m200 88v-16h-40a8 8 0 0 0 -8 8v64a8 8 0 0 0 8 8h40v-16h-32v-16h32v-16h-32v-16z"/><path d="m216 136v16h48a8 8 0 0 0 8-8v-32a8 8 0 0 0 -8-8h-32v-16h40v-16h-48a8 8 0 0 0 -8 8v32a8 8 0 0 0 8 8h32v16z"/><path d="m125.657 234.343-11.314 11.314 24 24a8 8 0 0 0 5.657 2.343c.1 0 .205 0 .307-.006a8 8 0 0 0 5.767-2.788l48-56-12.148-10.412-42.378 49.44z"/><path d="m88 208v80a8 8 0 0 0 8 8h80a8 8 0 0 0 8-8v-24h-16v16h-64v-64h48v-16h-56a8 8 0 0 0 -8 8z"/><path d="m185.926 346.794-42.378 49.44-17.891-17.891-11.314 11.314 24 24a8 8 0 0 0 5.657 2.343c.1 0 .205 0 .307-.006a8 8 0 0 0 5.767-2.788l48-56z"/><path d="m152 360v-16h-56a8 8 0 0 0 -8 8v80a8 8 0 0 0 8 8h80a8 8 0 0 0 8-8v-24h-16v16h-64v-64z"/><path d="m216 200h120v16h-120z"/><path d="m216 240h120v16h-120z"/><path d="m216 280h120v16h-120z"/><path d="m216 344h120v16h-120z"/><path d="m216 384h120v16h-120z"/><path d="m216 424h120v16h-120z"/><path d="m448 40a32.036 32.036 0 0 0 -32 32v328a7.977 7.977 0 0 0 .239 1.94l16 64a8 8 0 0 0 7.761 6.06h16a8 8 0 0 0 7.761-6.06l16-64a7.977 7.977 0 0 0 .239-1.94v-40h-16v24h-32v-256h32v216h16v-272a32.036 32.036 0 0 0 -32-32zm15.754 360-14 56h-3.508l-14-56zm-31.754-288v-40a16 16 0 0 1 32 0v40z"/></g></svg>