<svg xmlns="http://www.w3.org/2000/svg" width="118.255" height="201.257" viewBox="0 0 118.255 201.257">
  <g id="Group_115" data-name="Group 115" transform="translate(-77.873 15526.257)">
    <path id="Path_266" data-name="Path 266" d="M27.445,70.047h94.3v48.366h-94.3Zm0,0" transform="translate(61.216 -15568.77)" fill="#ba6f3c"/>
    <path id="Path_267" data-name="Path 267" d="M114.575,341.261v46.577a4.05,4.05,0,0,1-4.049,4.049H4.049A4.05,4.05,0,0,1,0,387.838V341.261a27.167,27.167,0,0,1,27.167-27.167H87.411A27.168,27.168,0,0,1,114.575,341.261Zm0,0" transform="translate(77.873 -15716.887)" fill="#ff7900"/>
    <path id="Path_268" data-name="Path 268" d="M235.238,341.255v46.581a4.049,4.049,0,0,1-4.049,4.051h-5.207V341.259a27.168,27.168,0,0,0-27.165-27.165h9.26A27.16,27.16,0,0,1,235.238,341.255Zm0,0" transform="translate(-39.304 -15716.887)" fill="#455e6d"/>
    <path id="Path_269" data-name="Path 269" d="M22.132,463.072H4.054A4.05,4.05,0,0,1,0,459.023v-27.64H22.132Zm0,0" transform="translate(77.87 -15788.072)" fill="#f8c298"/>
    <path id="Path_270" data-name="Path 270" d="M253.261,463.072H235.184V431.383H257.31v27.64A4.049,4.049,0,0,1,253.261,463.072Zm0,0" transform="translate(-61.182 -15788.072)" fill="#f8c298"/>
    <path id="Path_271" data-name="Path 271" d="M273.133,463.072h-5.207V431.383h9.256v27.64A4.049,4.049,0,0,1,273.133,463.072Zm0,0" transform="translate(-84.737 -15788.072)" fill="#e39f6e"/>
    <path id="Path_272" data-name="Path 272" d="M133.1,298.605a9.26,9.26,0,0,1-9.26-9.26V263.371h18.519v25.974A9.26,9.26,0,0,1,133.1,298.605Zm0,0" transform="translate(2.712 -15686.103)" fill="#e39f6e"/>
    <path id="Path_273" data-name="Path 273" d="M247.421,164.529a12.466,12.466,0,1,1-12.466-12.466A12.466,12.466,0,0,1,247.421,164.529Zm0,0" transform="translate(-57.16 -15618.547)" fill="#e39f6e"/>
    <path id="Path_274" data-name="Path 274" d="M33.808,164.529a12.466,12.466,0,1,1-12.466-12.466A12.466,12.466,0,0,1,33.808,164.529Zm0,0" transform="translate(72.486 -15618.547)" fill="#e39f6e"/>
    <path id="Path_275" data-name="Path 275" d="M90.6,167.893a33.6,33.6,0,0,1-33.341-29.435l-3.283-26.28a20.794,20.794,0,0,1,20.634-23.37h31.979a20.793,20.793,0,0,1,20.634,23.37l-3.283,26.28A33.6,33.6,0,0,1,90.6,167.893Zm0,0" transform="translate(45.214 -15580.156)" fill="#f8c298"/>
    <path id="Path_276" data-name="Path 276" d="M94.543,177.258a3.038,3.038,0,0,1-3.034-2.954l-.054-1.976a3.037,3.037,0,0,1,6.071-.166l.055,1.976a3.036,3.036,0,0,1-2.953,3.119C94.6,177.258,94.572,177.258,94.543,177.258Zm0,0" transform="translate(23.645 -15628.953)" fill="#0d73ce"/>
    <path id="Path_277" data-name="Path 277" d="M187.527,177.258a3.036,3.036,0,0,1-3.034-2.954l-.054-1.976a3.037,3.037,0,0,1,6.071-.166l.055,1.976a3.036,3.036,0,0,1-2.953,3.119C187.584,177.258,187.557,177.258,187.527,177.258Zm0,0" transform="translate(-31.49 -15628.953)" fill="#0d73ce"/>
    <path id="Path_278" data-name="Path 278" d="M123.9,204.337c-5.353,0-10.424,3.045-13.569,8.149a3.988,3.988,0,0,0,.677,4.983,2.757,2.757,0,0,0,4.241-.8,9.8,9.8,0,0,1,17.3,0,2.758,2.758,0,0,0,4.241.8,3.986,3.986,0,0,0,.679-4.983C134.324,207.382,129.251,204.337,123.9,204.337Zm0,0" transform="translate(13.004 -15648.082)" fill="#e39f6e"/>
    <path id="Path_279" data-name="Path 279" d="M54.649,399.43v42.407H48.574V399.43a3.037,3.037,0,0,1,6.074,0Zm0,0" transform="translate(48.392 -15766.837)" fill="#455e6d"/>
    <path id="Path_280" data-name="Path 280" d="M233.527,399.43v42.407h-6.074V399.43a3.037,3.037,0,0,1,6.074,0Zm0,0" transform="translate(-56.996 -15766.837)" fill="#455e6d"/>
    <path id="Path_281" data-name="Path 281" d="M123.076,4.511V9.29A34.026,34.026,0,0,1,89.049,43.312H20.237A4.513,4.513,0,0,1,15.723,38.8V34.023A34.025,34.025,0,0,1,49.749,0h68.814A4.513,4.513,0,0,1,123.076,4.511Zm0,0" transform="translate(68.33 -15526.257)" fill="#c2c6cc"/>
    <path id="Path_282" data-name="Path 282" d="M154.024,71.608a37.1,37.1,0,0,1-11.441,12.411H126.207a30.964,30.964,0,0,0,22.531-15.408,3.038,3.038,0,1,1,5.285,3Zm0,0" transform="translate(3.346 -15566.964)" fill="#93a3af"/>
    <path id="Path_283" data-name="Path 283" d="M184.815,71.608a37.092,37.092,0,0,1-11.439,12.411H157a30.964,30.964,0,0,0,22.531-15.408,3.037,3.037,0,1,1,5.284,3Zm0,0" transform="translate(-14.837 -15566.964)" fill="#93a3af"/>
    <path id="Path_284" data-name="Path 284" d="M129.285,422.855H89.517a2.429,2.429,0,0,1-2.329-3.117l2.784-9.419a2.429,2.429,0,0,1,2.331-1.741h39.767A2.429,2.429,0,0,1,134.4,411.7l-2.784,9.419A2.429,2.429,0,0,1,129.285,422.855Zm0,0" transform="translate(26.703 -15774.231)" fill="#f1dd47"/>
  </g>
</svg>
